# xmcd
#
# Track frame offsets:
# 150
# 19408
# 39872
# 59842
# 87775
# 104687
# 128178
# 154082
# 170668
# 193849
# 215343
# 237236
# 250309
# 270556
#
# Disc length: 4006 seconds
#
#
# Revision: 0
# Processed by: cddbd v1.5.2PL0 Copyright (c) Steve Scherf et al.
# Submitted via: FreeRIP 2.944 
#
DISCID=ca0fa40e
DTITLE=jon walsh blues band - can you feel it?
DYEAR=2006
DGENRE=Blues
TTITLE0=jon walsh - shame shame shame
TTITLE1=jon walsh - like a stray dog
TTITLE2=jon walsh - the sky is crying
TTITLE3=jon walsh - can you feel it
TTITLE4=jon walsh - aberdeen
TTITLE5=jon walsh - that woman got the blues
TTITLE6=jon walsh - all your lovin
TTITLE7=jon walsh - shake your money maker
TTITLE8=jon walsh - mean street
TTITLE9=jon walsh - walk on baby
TTITLE10=jon walsh - some day after a while
TTITLE11=jon walsh - that aint no way to get along
TTITLE12=jon walsh - balling the jack
TTITLE13=jon walsh - what have i got to do to change your mind
EXTD=
EXTT0=
EXTT1=
EXTT2=
EXTT3=
EXTT4=
EXTT5=
EXTT6=
EXTT7=
EXTT8=
EXTT9=
EXTT10=
EXTT11=
EXTT12=
EXTT13=
PLAYORDER=
